<svg xmlns="http://www.w3.org/2000/svg" width="3200" height="3200" version="1.0" viewBox="0 0 2400 2400"><path d="M1150 69.6c-3 .2-13.6.8-23.5 1.4C904 84.2 686.1 162.4 506.3 293.6 338.4 416.1 207.9 579 128 766c-13 30.5-33.3 84.5-35.5 94.7l-.7 3.3h163.9l4.8-12.3c13-33.3 31-72.2 47.8-103.5l8.2-15.2h316.4l-1.5 4.7c-10.6 34.4-18.4 63.2-25.8 94.9-3 13.1-5.8 25.6-6.2 27.6l-.6 3.8h159.8l4.3-16.3c8.9-33.2 23-78.9 33-106.2l2.9-8 152.6-.3 152.6-.2v131h155V733l165.1.2 165.1.3 6.9 17.3c11.8 29.9 25.7 70.9 35.9 105.9l2.1 7.3h79.9c44 0 80-.3 80-.8 0-1.6-11.2-44-16.5-62.2-4.3-15.1-18.2-58.8-21.2-66.8-.4-1 32.5-1.2 163.8-1l164.4.3 5.7 10.5c15.6 28.2 33.6 66.8 46.9 100l7.8 19.5 82 .3c45.2.1 82.1 0 82.1-.2 0-2.9-21.8-62-31.5-85.6-120.7-291.2-361.1-521.6-662-634.5-105.9-39.7-212.9-62.9-332.5-72.1-19.1-1.4-117.7-2.8-133-1.8zm302.3 185.5c148.9 37.4 287.3 107.2 402.2 202.9 26.1 21.7 41.3 35.6 68 62.4 21.9 22 31.3 32 51.9 55.3l1.9 2.3h-287.1l-4.3-8.3c-14.4-27.9-37.2-66.5-56.7-96.2-55-83.8-113-150.7-190.2-219.3-1.9-1.7-3.1-3.2-2.7-3.2.4 0 8.1 1.8 17 4.1zm-548 23.7c-78.9 76.7-148.1 172.9-200.9 279.5l-9.8 19.7H559.2c-127.9 0-134.4-.1-133.1-1.8 9.2-11.9 41.8-46.3 65.9-69.7 91.2-88.2 203.1-160.3 323.5-208.5 19.4-7.8 54-20.2 69.5-25 12.7-4 35.3-10.8 36-10.9.3 0-7.2 7.5-16.7 16.7zm368.9 42.9c67.4 48.1 130.4 110.5 184.8 182.8 20.3 27 50 70.4 50 73 0 .3-56 .5-124.5.5H1259V444.9c0-106.1.3-132.9 1.3-132.3.6.4 6.5 4.5 12.9 9.1zM1104 445.5V578H988c-63.8 0-116-.4-116-.8 0-1.4 23.7-39.9 35.2-57.1 45.8-68.7 98.2-127.6 156.8-176.3 9.6-8 38.9-30.7 39.8-30.8.1 0 .2 59.6.2 132.5zM120.1 1015.6c-15 3.2-28.6 12.6-33.8 23.2-2.3 4.7-2.7 6.7-2.6 13.6.1 4.5 1 11.4 2.1 15.6 2.1 8 87.8 254.7 94.3 271.5 10.4 26.9 24.2 39.6 48.6 44.7 8.2 1.7 12.3 1.9 25.3 1.5 9.7-.3 17.7-1.1 21.5-2.1 13.2-3.6 27-12.3 34.3-21.5 7-8.9 16.5-33.1 53.7-138.1 20.2-56.9 37.3-104.8 37.9-106.3 1-2.6 4.1 5.7 36.5 98 36 102.5 44.2 124.8 51.3 138.5 7 13.6 20.6 24.2 37.3 29 7.2 2.1 10 2.3 27.5 2.2 17.9 0 20.2-.2 27.7-2.5 10.3-3.2 18-7.8 25.8-15.4 7.3-7 12.2-16.5 20.3-39 10-27.8 87.1-250.2 89.1-257 5-17.3 4.9-25.9-.5-35.2-5.2-9-19.3-17.9-32.9-20.8-14.7-3.1-35.5-1.4-46.9 3.8-7.2 3.3-16.6 12.3-20.5 19.7-5.1 9.5-7.8 18.4-38.7 125.5-15.8 55-29 100.3-29.4 100.8-.3.4-15.2-41.5-33-93-41.1-119.1-43.8-126-54.3-137-14.8-15.5-30.9-21.3-58.6-21.3-21 0-34.6 3.4-47.4 11.6-13.9 9-20.5 18.5-30.5 43.9-2.1 5.5-18.3 51.9-35.8 103.2-17.5 51.2-32.2 92.9-32.6 92.5-.3-.4-13.9-47-30.2-103.5-16.3-56.6-30.6-105.2-31.7-108-3.6-9.1-10.8-22.1-14.8-26.7-7.5-8.8-21.2-13.1-41.4-12.9-6.2 0-14.1.7-17.6 1.5zM915 1015.6c-15.3 3.3-30.8 14.5-34.3 24.8-2.4 6.9-2.1 16.7.6 27.2 1.9 7.2 71 206.9 89.9 259.9 11.5 32.3 19 42.9 36.3 51.1 11 5.2 17.4 6.6 34 7.1 22.5.8 35.1-2 48.9-10.7 13.3-8.4 19.6-17.9 30.8-46.5 3.1-7.7 21.4-58.9 40.9-113.7 19.4-54.9 35.4-99.6 35.6-99.4.2.1 16.7 46.8 36.7 103.7 20 56.9 38.3 108.1 40.6 113.9 10 24.9 14.7 32.1 26.6 40.6 13.4 9.6 27.5 12.9 51.4 12.1 17.4-.6 23.8-1.9 34.9-7.3 5.2-2.6 9.5-5.7 14.5-10.8 7.6-7.5 9.9-11.5 16.6-28.5 7.9-20.1 92.9-266 94.9-274.7 2.5-10.9 2.6-15.3.6-22.2-3.4-11.5-19.2-23.2-36-26.7-14.9-3.1-36.2-1.3-47 4-6.9 3.3-16.5 12.2-19.7 18.2-5 9.1-8.7 21-38.4 124.1-16.3 56.5-29.9 103-30.3 103.4-.3.4-9.5-25.3-20.5-57-10.9-31.7-25.7-74.6-32.8-95.2-14.4-41.8-23.1-63.3-29.2-72.4-7.3-10.8-21.3-20.2-36.6-24.3-9.5-2.6-41.3-2.6-52.3 0-18.8 4.4-34.8 16.5-43 32.5-7.1 13.8-10.6 23.2-44.8 122.9-17.8 51.9-32.6 94-32.9 93.5-.4-.4-13-43.5-28-95.7-30.9-107.7-33.9-117.3-38.7-127-9-17.9-15.8-23.6-32-27-8.6-1.8-28.7-1.8-37.3.1zM1710 1015.6c-13.9 3-28.1 12.6-33 22.4-3.2 6.2-3.7 15.7-1.5 25.6 1.7 7.6 84.2 246.5 94.8 274.3 10.3 27.1 22.6 39.5 45.7 45.8 9.4 2.6 40.7 2.5 50 0 10.9-3.1 20.4-8.4 28.6-16 12.8-12 15.1-17.5 63-153.3 19.4-55.1 35.2-98.6 35.6-97.9.4.6 16.5 46.2 35.8 101.1 45.9 130.6 49.1 138.7 59.9 149.4 5.7 5.7 14.1 11.2 21.9 14.3 11.4 4.6 36.9 6.1 53.8 3.2 12.3-2.1 23.4-7.6 32.5-16.3 8.1-7.5 11.7-14.2 19.8-36.2 8.9-24.4 87.3-250.3 90.4-260.5 4.1-13.5 4.4-26.7.8-33.5-5.3-10.1-18.8-19.1-33.8-22.4-9.1-2-26.5-2.1-35.8-.1-19.1 4.1-30.4 15.3-38.2 38-1.3 3.8-15 50.9-30.4 104.5-15.4 53.6-28.7 99.9-29.6 102.9-1 3.6-1.8 5-2.3 4-.4-.8-15.3-43.3-33-94.4-39.1-112.8-43.9-125-53.3-135.2-14.8-16-32.7-22-63.2-21-26.1.8-39.2 5.6-53.6 19.7-6.6 6.4-8.4 9-12.6 18-7.2 15.1-8.3 18.1-43.4 120.4-17.5 51.1-32.1 93.1-32.3 93.3-.5.5-.7 0-32-109.3-15.1-52.9-28.6-99-29.9-102.5-3.6-9.4-7.9-17.6-13-24.6-5.3-7.1-12.7-11.4-24.2-13.8-8.8-1.8-28.8-1.8-37.5.1zM86 1516.6c0 2.6 19.3 59.6 26.5 78.4 90.5 235.3 259.6 435.7 479 567.7 149.9 90.3 315.4 145.1 491 162.8 64.7 6.5 149.2 7.3 214 1.9 133.4-11 258.8-42.6 381-96.1 23.7-10.4 73.3-35 96.5-48 50.8-28.4 103.2-63 148.6-98.3 64.1-49.7 128.2-111.6 180-174 81.2-97.7 143.5-204.8 188.4-323.6 6.4-17 24-69.3 24-71.4 0-.6-30.3-1-81.4-1h-81.3l-6.8 18.2c-12.4 33.2-26.8 66.3-41.5 95.3l-7.5 15-165.8.3c-94.5.1-165.7-.2-165.7-.7 0-.5.7-2.8 1.6-5.2 3.7-10.4 14-45.1 19.4-65.4 4.9-18.4 14-55.3 14-57 0-.3-35.4-.4-78.7-.3l-78.8.3-6.6 24c-8.5 31-17.2 59-26.3 84l-7.3 20-171.6.3-171.7.2v-129l-77.2.2-77.3.3-.3 64.2-.2 64.3H791.1l-6-18.5c-8.3-25.3-16.9-55.3-24.4-85.1l-6.3-24.9-79.2-.3c-55.6-.1-79.2.1-79.2.9 0 2 9.2 42.6 14.1 62.4 4.6 18.4 11 42.1 15.8 58.7l2 6.8H304.4l-12.2-24.8c-6.6-13.6-14.6-30.6-17.8-37.7-5.7-13.3-20.6-50.6-24-60.5l-1.9-5.5-81.3-.3c-73.5-.2-81.2-.1-81.2 1.4zm605 299.1c9.2 21 35.1 72.7 46.5 93.3 45.9 82.4 97 150.7 156.3 209.2 9.3 9.3 16.7 16.8 16.5 16.8-1.1 0-30.8-9.3-42.8-13.4-176.1-59.9-331.8-166.8-450-308.9-4.9-6-9.4-11.5-9.8-12.3-.7-1.2 18.5-1.4 137.5-1.4h138.4l7.4 16.7zm413 127.3c0 79.2-.2 144-.5 144-1.1 0-22.3-14.6-34-23.4-74.6-56-141-134.8-196.2-232.5-5.8-10.2-12-21.6-13.9-25.4l-3.4-6.7h248v144zm410.8-127.8c-57.4 92.6-129.8 173-209.8 233.2-16.2 12.2-44.1 31.6-45.4 31.6-.3 0-.6-63.2-.6-140.5V1799h265.9l-10.1 16.2zm478.1-14.5c-5.7 7.4-22.4 27.1-32.3 38.3-17.1 19.3-66.2 68.1-85.8 85.2-123.9 108.1-266.6 182.4-425.7 221.8-11.2 2.7-20.8 5-21.3 5s3.5-3.7 8.9-8.2c63.2-52.8 121.7-116.1 171.1-185 31.7-44.3 65.9-100.8 88.3-146.1l6.4-12.7h145.9c138.8 0 145.8.1 144.5 1.7z"/></svg>